{"title":"2012.2009.TS-IMAGiNE","uid":5165828,"size":2142378227,"categoryP":"video","categoryS":"movies","magnet":"?xt=urn:btih:f245a9eb8d1deb9f7c341462991b770e5c450730&amp;dn=2012.2009.TS-IMAGiNE&amp;tr=udp%3A%2F%2Ftracker.openbittorrent.com%3A80&amp;tr=udp%3A%2F%2Fopen.demonii.com%3A1337&amp;tr=udp%3A%2F%2Ftracker.coppersurfer.tk%3A6969&amp;tr=udp%3A%2F%2Fexodus.desync.com%3A6969","seeders":0,"leechers":0,"uploader":"raymondhome","files":2,"time":1258399684,"description":"Love for All and Sharing is the first step to solving all the problems of humanity.\n\nWebsites I want to share.\n\n    &lt;a href=&quot;\nhttp://www.shareintl.org/&quot; rel=&quot;nofollow&quot; target=&quot;_NEW&quot;&gt;\nhttp://www.shareintl.org/&lt;/a&gt;\n\n    &lt;a href=&quot;\nhttp://www.lightmiddleway.com&quot; rel=&quot;nofollow&quot; target=&quot;_NEW&quot;&gt;\nhttp://www.lightmiddleway.com&lt;/a&gt;\n\n\nThank you very much\n\nNo credit for me...credit to EVERYONE for sharing\n\nVideo\nID : 0\nFormat : MPEG-4 Visual\nFormat profile : AdvancedSimple@L5\nFormat settings, BVOP : Yes\nFormat settings, QPel : No\nFormat settings, GMC : No warppoints\nFormat settings, Matrix : Custom\nCodec ID : XVID\nCodec ID/Hint : XviD\nDuration : 2h 28mn\nBit rate : 1 692 Kbps\nWidth : 704 pixels\nHeight : 304 pixels\nDisplay aspect ratio : 2.35:1\nFrame rate : 25.000 fps\nResolution : 24 bits\nColorimetry : 4:2:0\nScan type : Progressive\nBits/(Pixel*Frame) : 0.316\nStream size : 1.75 GiB (88%)\nWriting library : XviD 1.2.1 (UTC 2008-12-04)\nAudio\nID : 1\nFormat : AC-3\nFormat/Info : Audio Coding 3\nCodec ID : 2000\nDuration : 2h 28mn\nBit rate mode : Constant\nBit rate : 224 Kbps\nChannel(s) : 2 channels\nChannel positions : L R\nSampling rate : 48.0 KHz\nStream size : 238 MiB (12%)\nAlignment : Split accross interleaves\nInterleave, duration : 96 ms (2.40 video frames)\nInterleave, preload duration : 96 ms\n\nAccording to release info...\nIMAGiNE bringing you another release.....\nThis time round it's a really nice TS of 2012.......many thanks to ELEKTRI4KA (Not camelot as it wasn't theirs anyway) Awesome video bro,probably one of THE best videos in a looooong time. The audio is our own and is pretty decent .......better than whats out now anyway. Still did some work to the video as it was a touch dark in places and also over bright in others so we tried to get the balance right ;-) And not like these scene wannabes you can use our encode or audio............enjoy :)\n &lt;a href=&quot;\nhttp://thepiratebay.se/user/raymondhome/&quot; rel=&quot;nofollow&quot; target=&quot;_NEW&quot;&gt;\nhttp://thepiratebay.se/user/raymondhome/&lt;/a&gt;","torrent":{"xt":"urn:btih:f245a9eb8d1deb9f7c341462991b770e5c450730","amp;dn":"2012.2009.TS-IMAGiNE","amp;tr":["udp%3A%2F%2Ftracker.openbittorrent.com%3A80","udp%3A%2F%2Fopen.demonii.com%3A1337","udp%3A%2F%2Ftracker.coppersurfer.tk%3A6969","udp%3A%2F%2Fexodus.desync.com%3A6969"],"infoHash":"f245a9eb8d1deb9f7c341462991b770e5c450730","infoHashBuffer":{"type":"Buffer","data":[242,69,169,235,141,29,235,159,124,52,20,98,153,27,119,14,92,69,7,48]},"announce":[],"urlList":[]}}